<?xml version="1.0" encoding="iso-8859-1"?>
<!-- Generator: Adobe Illustrator 19.0.0, SVG Export Plug-In . SVG Version: 6.00 Build 0)  -->
<svg version="1.1" id="Layer_1" xmlns="http://www.w3.org/2000/svg" xmlns:xlink="http://www.w3.org/1999/xlink" x="0px" y="0px"
	 viewBox="0 0 512 512" style="enable-background:new 0 0 512 512;" xml:space="preserve">
<circle style="fill:#FF314F;" cx="256" cy="256" r="256"/>
<path style="fill:#A30F44;" d="M512,256c0-2.403-0.04-4.798-0.105-7.184L408.529,145.451l-95.022,178.4l0.314,0.314l-211.904,40.646
	l147.091,147.091c2.324,0.062,4.655,0.098,6.992,0.098C397.384,512,512,397.384,512,256z"/>
<path style="fill:#D0D1D3;" d="M400.305,369.778H111.694c-6.704,0-12.14-5.435-12.14-12.14V154.36
	c0-6.704,5.435-12.138,12.14-12.138h288.611c6.704,0,12.14,5.435,12.14,12.138v203.278
	C412.444,364.342,407.009,369.778,400.305,369.778z"/>
<path style="fill:#A6A8AA;" d="M400.305,142.222H256v227.556h144.305c6.704,0,12.14-5.435,12.14-12.14V154.362
	C412.444,147.658,407.009,142.222,400.305,142.222z"/>
<circle style="fill:#C92F00;" cx="116.364" cy="156.444" r="6.896"/>
<circle style="fill:#EAA22F;" cx="140.067" cy="156.444" r="6.896"/>
<circle style="fill:#386895;" cx="163.771" cy="156.444" r="6.896"/>
<path style="fill:#FFFFFF;" d="M393.051,162.478H184.458c-3.332,0-6.034-2.701-6.034-6.034l0,0c0-3.332,2.701-6.034,6.034-6.034
	h208.593c3.332,0,6.034,2.701,6.034,6.034l0,0C399.084,159.777,396.383,162.478,393.051,162.478z"/>
<path style="fill:#D0D1D3;" d="M393.051,150.411H256v12.067h137.051c3.332,0,6.034-2.701,6.034-6.034
	S396.383,150.411,393.051,150.411z"/>
<rect x="112.916" y="175.838" style="fill:#FFC61B;" width="286.168" height="181.01"/>
<rect x="256" y="175.838" style="fill:#EAA22F;" width="143.084" height="181.01"/>
<g>
	<path style="fill:#FF5419;" d="M369.778,231.865H142.222c-2.381,0-4.31-1.929-4.31-4.31c0-2.381,1.929-4.31,4.31-4.31h227.556
		c2.381,0,4.31,1.929,4.31,4.31C374.088,229.936,372.158,231.865,369.778,231.865z"/>
	<path style="fill:#FF5419;" d="M369.778,274.532H142.222c-2.381,0-4.31-1.929-4.31-4.31s1.929-4.31,4.31-4.31h227.556
		c2.381,0,4.31,1.929,4.31,4.31S372.158,274.532,369.778,274.532z"/>
	<path style="fill:#FF5419;" d="M369.778,317.199H142.222c-2.381,0-4.31-1.929-4.31-4.31s1.929-4.31,4.31-4.31h227.556
		c2.381,0,4.31,1.929,4.31,4.31S372.158,317.199,369.778,317.199z"/>
</g>
<g>
	<path style="fill:#C92F00;" d="M369.778,223.246H256v8.62h113.778c2.381,0,4.31-1.929,4.31-4.31
		C374.088,225.175,372.158,223.246,369.778,223.246z"/>
	<path style="fill:#C92F00;" d="M369.778,265.912H256v8.62h113.778c2.381,0,4.31-1.929,4.31-4.31S372.158,265.912,369.778,265.912z"
		/>
	<path style="fill:#C92F00;" d="M369.778,308.579H256v8.62h113.778c2.381,0,4.31-1.929,4.31-4.31S372.158,308.579,369.778,308.579z"
		/>
</g>
<g>
	<path style="fill:#930000;" d="M192.143,239.623h-14.51c-2.896,0-5.244-2.348-5.244-5.244v-13.648c0-2.896,2.348-5.244,5.244-5.244
		h14.51c2.896,0,5.242,2.348,5.242,5.244v13.648C197.387,237.275,195.039,239.623,192.143,239.623z"/>
	<path style="fill:#930000;" d="M332.641,283.582h-14.51c-2.896,0-5.244-2.348-5.244-5.244V264.69c0-2.896,2.348-5.244,5.244-5.244
		h14.51c2.896,0,5.244,2.348,5.244,5.244v13.648C337.886,281.235,335.538,283.582,332.641,283.582z"/>
	<path style="fill:#930000;" d="M222.311,324.956h-14.51c-2.896,0-5.244-2.348-5.244-5.244v-13.648c0-2.896,2.348-5.244,5.244-5.244
		h14.51c2.896,0,5.244,2.348,5.244,5.244v13.648C227.556,322.608,225.208,324.956,222.311,324.956z"/>
</g>
<g>
</g>
<g>
</g>
<g>
</g>
<g>
</g>
<g>
</g>
<g>
</g>
<g>
</g>
<g>
</g>
<g>
</g>
<g>
</g>
<g>
</g>
<g>
</g>
<g>
</g>
<g>
</g>
<g>
</g>
</svg>
